<svg width="48" height="48" xmlns="http://www.w3.org/2000/svg">

 <g>
  <title>Layer 1</title>
  <path id="svg_1" d="m44,11.11l0,25.78c0,1.27 -0.79,2.4 -1.98,2.82l-8.82,4.14l0.8,-10.85l0,-18l-0.8,-10.85l8.82,4.14c1.19,0.42 1.98,1.55 1.98,2.82z" fill="#000000"/>
  <path id="svg_2" d="m9,33.896l25,-18.896l0,-9.647c0,-1.198 -1.482,-1.758 -2.275,-0.86l-27.067,24.746c-0.9,0.83 -0.849,2.267 0.107,3.032c0,0 1.324,1.232 1.803,1.574c0.736,0.525 1.703,0.585 2.432,0.051z" fill="#000000"/>
  <path id="svg_3" d="m9,14.104l25,18.896l0,9.647c0,1.198 -1.482,1.758 -2.275,0.86l-27.067,-24.746c-0.9,-0.83 -0.849,-2.267 0.107,-3.032c0,0 1.324,-1.232 1.803,-1.574c0.736,-0.525 1.703,-0.585 2.432,-0.051z" fill="#000000"/>
 </g>
</svg>