<svg width="50" height="50" viewBox="0 0 50 50" fill="none" xmlns="http://www.w3.org/2000/svg">
<path d="M35.5168 0H14.4784C12.4664 0 10.8411 1.63169 10.8411 3.64368V46.3611C10.8411 48.3667 12.4664 50 14.4784 50H35.5168C37.5256 50 39.1573 48.3683 39.1573 46.3611V3.64368C39.1557 1.63169 37.5256 0 35.5168 0ZM36.4289 40.5113H13.5695V6.14644H36.4289V40.5113ZM29.8753 3.69733H20.1215V2.63374H29.8769L29.8753 3.69733ZM34.0492 3.2113C34.0492 3.72574 33.6295 4.14234 33.1166 4.14234C32.6022 4.14234 32.184 3.72416 32.184 3.2113C32.184 2.69844 32.6022 2.28026 33.1166 2.28026C33.631 2.27868 34.0492 2.69686 34.0492 3.2113ZM29.4382 46.118H20.5554V43.3849H29.4382V46.118Z" fill="black"/>
<path d="M29.7773 13.9922C29.3875 13.9791 28.9794 14.0471 28.5703 14.1797C27.7521 14.445 26.8946 14.962 26.0146 15.6777C25.6698 15.9583 25.3218 16.2789 24.9727 16.6192C24.6312 16.2876 24.2904 15.9745 23.9531 15.7002C23.0739 14.985 22.2187 14.4688 21.4023 14.2041C20.5859 13.9394 19.7736 13.9312 19.1064 14.3164C18.4393 14.7016 18.0403 15.4087 17.8613 16.2481C17.6823 17.0874 17.7011 18.087 17.8809 19.2061C17.9433 19.5948 18.0333 20.0026 18.1348 20.418C17.7535 20.5335 17.3833 20.655 17.04 20.7891C16.004 21.1937 15.1467 21.6778 14.5225 22.2539C13.8982 22.83 13.4951 23.5292 13.4951 24.2969C13.4951 25.0646 13.8982 25.7628 14.5225 26.3389C15.1467 26.915 16.004 27.4 17.04 27.8047C17.4071 27.9481 17.8046 28.0772 18.2148 28.1992C18.0673 28.7507 17.9477 29.2857 17.8662 29.793C17.6863 30.9129 17.6673 31.9126 17.8467 32.7539C18.0261 33.5952 18.4252 34.3063 19.0957 34.6934C19.7662 35.0805 20.5821 35.071 21.4004 34.8057C22.2186 34.5404 23.0751 34.0244 23.9551 33.3086C24.2968 33.0307 24.6424 32.7136 24.9883 32.377C25.3358 32.7155 25.6832 33.0343 26.0264 33.3135C26.9056 34.0287 27.7617 34.5449 28.5781 34.8096C29.3945 35.0743 30.2059 35.0825 30.873 34.6973C31.5402 34.3121 31.9392 33.605 32.1182 32.7656C32.2971 31.9263 32.2774 30.9267 32.0977 29.8076C32.0159 29.299 31.8963 28.7631 31.748 28.21C32.1719 28.0849 32.5819 27.9524 32.96 27.8047C33.996 27.4 34.8533 26.915 35.4775 26.3389C36.1018 25.7628 36.5049 25.0646 36.5049 24.2969C36.5049 23.5292 36.1018 22.83 35.4775 22.2539C34.8533 21.6778 33.996 21.1937 32.96 20.7891C32.6117 20.6531 32.2358 20.53 31.8486 20.4131C31.9509 19.9951 32.0417 19.5844 32.1045 19.1934C32.2844 18.0734 32.3034 17.0727 32.124 16.2315C31.9446 15.3902 31.5445 14.6801 30.874 14.293C30.5388 14.0994 30.1672 14.0053 29.7773 13.9922ZM29.7314 15.0098C29.9761 15.0165 30.1848 15.0747 30.3633 15.1777C30.7203 15.3839 30.9842 15.7851 31.125 16.4453C31.2658 17.1056 31.2609 17.9977 31.0947 19.0322C31.0378 19.3865 30.9552 19.7619 30.8613 20.1465C29.8389 19.9004 28.7185 19.7177 27.5244 19.6104C26.9245 18.7792 26.308 18.0232 25.6865 17.3516C26.0151 17.0308 26.3415 16.7309 26.6602 16.4717C27.473 15.8105 28.2426 15.3606 28.8848 15.1524C29.2059 15.0483 29.4868 15.0031 29.7314 15.0098ZM20.2432 15.0127C20.4892 15.0058 20.7707 15.0509 21.0928 15.1553C21.7368 15.3641 22.5077 15.8138 23.3213 16.4756C23.6334 16.7295 23.9527 17.0229 24.2744 17.3359C23.6485 18.0129 23.0276 18.7769 22.4238 19.6152C21.234 19.7246 20.1176 19.909 19.0996 20.1563C19.0063 19.7735 18.9248 19.3996 18.8682 19.0469C18.7018 18.0114 18.6977 17.1182 18.8389 16.4561C18.9801 15.7939 19.2461 15.3907 19.6064 15.1826C19.7866 15.0786 19.9971 15.0196 20.2432 15.0127ZM24.9883 18.0713C25.3955 18.5145 25.803 18.9997 26.207 19.5215C25.81 19.5049 25.4081 19.4951 25 19.4951C24.5837 19.4951 24.1742 19.5053 23.7695 19.5225C24.1737 19.0002 24.5809 18.5149 24.9883 18.0713ZM25 20.5049C25.6799 20.5049 26.3427 20.5328 26.9873 20.5801C27.4309 21.2172 27.8643 21.893 28.2773 22.6084C28.6403 23.237 28.9687 23.8646 29.2676 24.4844C28.9655 25.1124 28.6316 25.7485 28.2637 26.3858C27.9398 26.9467 27.6016 27.4795 27.2578 27.9932C26.5297 28.054 25.7752 28.0879 25 28.0879C24.2062 28.0879 23.4347 28.052 22.6904 27.9883C22.3524 27.482 22.0199 26.9563 21.7012 26.4043C21.3341 25.7685 21.0018 25.1346 20.7002 24.5078C21.0031 23.8776 21.3369 23.2391 21.7061 22.5996C22.1169 21.888 22.5491 21.216 22.9902 20.582C23.6418 20.5337 24.3122 20.5049 25 20.5049ZM28.2754 20.7051C29.0993 20.8079 29.8728 20.9508 30.5928 21.1221C30.3791 21.8227 30.1158 22.5544 29.7969 23.3096C29.5898 22.9104 29.3753 22.5098 29.1436 22.1084C28.8629 21.6222 28.571 21.158 28.2754 20.7051ZM21.6719 20.7129C21.3823 21.1576 21.0974 21.6123 20.8223 22.0889C20.5875 22.4954 20.3686 22.9014 20.1592 23.3057C19.843 22.555 19.5813 21.8274 19.3691 21.1309C20.084 20.9592 20.8534 20.8169 21.6719 20.7129ZM31.582 21.3877C31.9365 21.4949 32.2788 21.6069 32.5928 21.7295C33.5478 22.1025 34.3033 22.5443 34.793 22.9961C35.2826 23.448 35.4951 23.8789 35.4951 24.2969C35.4951 24.7149 35.2826 25.1458 34.793 25.5977C34.3033 26.0495 33.5478 26.4912 32.5928 26.8643C32.2438 27.0006 31.8605 27.1241 31.4619 27.2412C31.1776 26.3618 30.8147 25.4444 30.3828 24.5078C30.8794 23.4326 31.2805 22.3842 31.582 21.3877ZM18.4014 21.3926C18.6994 22.3791 19.0954 23.4171 19.585 24.4815C19.1502 25.4235 18.7855 26.3461 18.5 27.2305C18.1155 27.1165 17.7451 26.9962 17.4072 26.8643C16.4521 26.4912 15.6967 26.0495 15.207 25.5977C14.7174 25.1458 14.5049 24.7149 14.5049 24.2969C14.5049 23.8789 14.7174 23.448 15.207 22.9961C15.6967 22.5443 16.4521 22.1025 17.4072 21.7295C17.7164 21.6088 18.053 21.4984 18.4014 21.3926ZM25 22C23.6252 22 22.5 23.1252 22.5 24.5C22.5 25.8748 23.6252 27 25 27C26.3748 27 27.5 25.8748 27.5 24.5C27.5 23.1252 26.3748 22 25 22ZM25 23C25.8343 23 26.5 23.6657 26.5 24.5C26.5 25.3344 25.8343 26 25 26C24.1657 26 23.5 25.3344 23.5 24.5C23.5 23.6657 24.1657 23 25 23ZM29.8096 25.6817C30.0718 26.3023 30.2997 26.9095 30.4912 27.4951C29.8899 27.6346 29.2496 27.752 28.5762 27.8447C28.77 27.5354 28.9615 27.2203 29.1484 26.8965C29.3828 26.4906 29.6004 26.0853 29.8096 25.6817ZM20.1709 25.6826C20.3812 26.0887 20.6001 26.4959 20.8359 26.9043C21.0205 27.224 21.209 27.5362 21.4004 27.8418C20.7289 27.7487 20.0906 27.6308 19.4912 27.4912C19.6818 26.9074 19.9099 26.3014 20.1709 25.6826ZM19.2031 28.4619C20.108 28.6763 21.0889 28.841 22.1289 28.9483C22.8233 29.9526 23.5463 30.8547 24.2744 31.6436C23.9489 31.9609 23.6263 32.2588 23.3105 32.5156C22.4977 33.1768 21.7272 33.6258 21.085 33.834C20.4428 34.0422 19.9635 34.0147 19.6064 33.8086C19.2494 33.6025 18.9865 33.2013 18.8457 32.541C18.7049 31.8808 18.7088 30.9897 18.875 29.9551C18.9504 29.4858 19.0631 28.9832 19.2031 28.4619ZM30.7803 28.4658C30.9214 28.99 31.0345 29.4949 31.1104 29.9668C31.2767 31.0023 31.2808 31.8945 31.1396 32.5567C30.9985 33.2188 30.7334 33.623 30.373 33.8311C30.0127 34.0391 29.5298 34.0672 28.8857 33.8584C28.2417 33.6496 27.4708 33.1989 26.6572 32.5371C26.3392 32.2784 26.0144 31.9791 25.6865 31.6592C26.4193 30.8673 27.1477 29.9604 27.8467 28.9502C28.8894 28.8436 29.8729 28.6799 30.7803 28.4658ZM23.4336 29.0508C23.947 29.0788 24.4671 29.0977 25 29.0977C25.5153 29.0977 26.0185 29.0799 26.5156 29.0537C26.0075 29.7393 25.4895 30.3626 24.9736 30.9238C24.4581 30.3614 23.9411 29.737 23.4336 29.0508Z" fill="black"/>
</svg>
