<svg width="155" height="155" viewBox="0 0 155 155" fill="none" xmlns="http://www.w3.org/2000/svg">
<path d="M106.562 108.205H48.4375V141.002H106.562V108.205Z" fill="#333333"/>
<path d="M48.4375 113.877H83.0219L48.4375 131.406V113.877Z" fill="black"/>
<path d="M114.269 147.686H40.7312C37.8782 147.686 35.5483 145.351 35.5483 142.503C35.5483 139.65 37.883 137.32 40.7312 137.32H114.264C117.117 137.32 119.447 139.655 119.447 142.503C119.452 145.356 117.117 147.686 114.269 147.686Z" fill="#999999"/>
<path d="M145.312 113.877H9.6875C4.35937 113.877 0 109.517 0 104.189V17.0016C0 11.6734 4.35937 7.31406 9.6875 7.31406H145.312C150.641 7.31406 155 11.6734 155 17.0016V104.189C155 109.517 150.641 113.877 145.312 113.877Z" fill="#D6D6D6"/>
<path d="M148.379 13.9548H6.65051V107.236H148.379V13.9548Z" fill="#333333"/>
<path d="M36.2264 59.4231L64.0247 45.9333V51.2081L41.976 61.472V61.5883L64.0247 71.9103V77.1319L36.2264 63.642V59.4231Z" fill="#2B9B62"/>
<path d="M68.0935 79.4763L82.4068 36.9578H87.4491L73.1359 79.4763H68.0935Z" fill="#2B9B62"/>
<path d="M118.774 63.7631L90.9753 77.1367V71.9152L113.383 61.5931V61.4769L90.9753 51.1549V45.9333L118.774 59.3069V63.7631Z" fill="#2B9B62"/>
</svg>
